<?xml version="1.0" standalone="no"?>
<!DOCTYPE svg PUBLIC "-//W3C//DTD SVG 20010904//EN"
 "http://www.w3.org/TR/2001/REC-SVG-20010904/DTD/svg10.dtd">
<svg version="1.0" xmlns="http://www.w3.org/2000/svg"
 width="260.000000pt" height="260.000000pt" viewBox="0 0 260.000000 260.000000"
 preserveAspectRatio="xMidYMid meet">
<metadata>
Created by potrace 1.11, written by Peter Selinger 2001-2013
</metadata>
<g transform="translate(0.000000,260.000000) scale(0.100000,-0.100000)"
fill="#000000" stroke="none">
<path d="M0 1300 l0 -1300 1300 0 1300 0 0 1300 0 1300 -1300 0 -1300 0 0
-1300z m1461 683 c78 -153 191 -374 251 -490 l109 -213 -93 0 -93 0 -59 125
-59 125 -294 0 -294 0 -59 -125 -59 -125 -91 0 c-49 0 -90 3 -90 6 0 9 480
946 492 962 7 8 41 12 104 12 l93 0 142 -277z m-87 -693 c43 -11 100 -32 127
-46 l49 -27 0 -69 c0 -38 -4 -67 -8 -64 -5 3 -32 21 -60 40 -80 53 -142 71
-252 71 -139 -1 -217 -40 -276 -141 -50 -85 -67 -255 -39 -388 24 -114 77
-185 170 -228 42 -19 67 -23 160 -23 92 0 118 4 158 22 l47 22 0 130 0 131
-100 0 -100 0 0 55 0 55 160 0 160 0 0 -210 0 -210 -47 -31 c-142 -89 -379
-102 -524 -29 -89 46 -165 140 -202 253 -28 86 -30 304 -4 392 22 72 57 133
105 187 101 111 293 155 476 108z"/>
<path d="M1101 1882 l-121 -242 240 0 239 0 -33 73 c-18 39 -71 148 -118 242
l-86 170 -121 -243z"/>
</g>
</svg>
